<svg xmlns="http://www.w3.org/2000/svg" xmlns:xlink="http://www.w3.org/1999/xlink" width="500" zoomAndPan="magnify" viewBox="0 0 375 374.999991" height="500" preserveAspectRatio="xMidYMid meet" version="1.0"><defs><g/></defs><g fill="#d9d9d9" fill-opacity="0.4"><g transform="translate(51.152099, 214.181134)"><g><path d="M 11.765625 -31.296875 C 13.023438 -33.484375 14.898438 -35.3125 17.390625 -36.78125 C 19.890625 -38.25 22.796875 -38.984375 26.109375 -38.984375 C 29.515625 -38.984375 32.601562 -38.164062 35.375 -36.53125 C 38.15625 -34.90625 40.335938 -32.609375 41.921875 -29.640625 C 43.515625 -26.679688 44.3125 -23.238281 44.3125 -19.3125 C 44.3125 -15.445312 43.515625 -11.992188 41.921875 -8.953125 C 40.335938 -5.921875 38.15625 -3.566406 35.375 -1.890625 C 32.601562 -0.210938 29.515625 0.625 26.109375 0.625 C 22.835938 0.625 19.953125 -0.109375 17.453125 -1.578125 C 14.960938 -3.046875 13.066406 -4.875 11.765625 -7.0625 L 11.765625 18.203125 L 5.390625 18.203125 L 5.390625 -38.359375 L 11.765625 -38.359375 Z M 37.796875 -19.3125 C 37.796875 -22.207031 37.210938 -24.726562 36.046875 -26.875 C 34.878906 -29.019531 33.300781 -30.648438 31.3125 -31.765625 C 29.332031 -32.890625 27.15625 -33.453125 24.78125 -33.453125 C 22.445312 -33.453125 20.285156 -32.878906 18.296875 -31.734375 C 16.316406 -30.597656 14.734375 -28.941406 13.546875 -26.765625 C 12.359375 -24.597656 11.765625 -22.09375 11.765625 -19.25 C 11.765625 -16.351562 12.359375 -13.820312 13.546875 -11.65625 C 14.734375 -9.488281 16.316406 -7.832031 18.296875 -6.6875 C 20.285156 -5.539062 22.445312 -4.96875 24.78125 -4.96875 C 27.15625 -4.96875 29.332031 -5.539062 31.3125 -6.6875 C 33.300781 -7.832031 34.878906 -9.488281 36.046875 -11.65625 C 37.210938 -13.820312 37.796875 -16.375 37.796875 -19.3125 Z M 37.796875 -19.3125 "/></g></g></g><g fill="#d9d9d9" fill-opacity="0.4"><g transform="translate(98.469513, 214.181134)"><g><path d="M 11.765625 -32.125 C 12.878906 -34.320312 14.472656 -36.023438 16.546875 -37.234375 C 18.628906 -38.453125 21.164062 -39.0625 24.15625 -39.0625 L 24.15625 -32.484375 L 22.46875 -32.484375 C 15.332031 -32.484375 11.765625 -28.609375 11.765625 -20.859375 L 11.765625 0 L 5.390625 0 L 5.390625 -38.359375 L 11.765625 -38.359375 Z M 11.765625 -32.125 "/></g></g></g><g fill="#d9d9d9" fill-opacity="0.4"><g transform="translate(124.578085, 214.181134)"><g><path d="M 22.125 0.625 C 18.53125 0.625 15.273438 -0.1875 12.359375 -1.8125 C 9.441406 -3.445312 7.15625 -5.769531 5.5 -8.78125 C 3.84375 -11.789062 3.015625 -15.28125 3.015625 -19.25 C 3.015625 -23.164062 3.863281 -26.628906 5.5625 -29.640625 C 7.269531 -32.648438 9.59375 -34.957031 12.53125 -36.5625 C 15.46875 -38.175781 18.757812 -38.984375 22.40625 -38.984375 C 26.039062 -38.984375 29.328125 -38.175781 32.265625 -36.5625 C 35.210938 -34.957031 37.535156 -32.660156 39.234375 -29.671875 C 40.941406 -26.691406 41.796875 -23.21875 41.796875 -19.25 C 41.796875 -15.28125 40.921875 -11.789062 39.171875 -8.78125 C 37.421875 -5.769531 35.050781 -3.445312 32.0625 -1.8125 C 29.070312 -0.1875 25.757812 0.625 22.125 0.625 Z M 22.125 -4.96875 C 24.40625 -4.96875 26.546875 -5.503906 28.546875 -6.578125 C 30.554688 -7.648438 32.179688 -9.257812 33.421875 -11.40625 C 34.660156 -13.550781 35.28125 -16.164062 35.28125 -19.25 C 35.28125 -22.332031 34.671875 -24.945312 33.453125 -27.09375 C 32.242188 -29.238281 30.660156 -30.832031 28.703125 -31.875 C 26.742188 -32.925781 24.617188 -33.453125 22.328125 -33.453125 C 19.992188 -33.453125 17.859375 -32.925781 15.921875 -31.875 C 13.984375 -30.832031 12.429688 -29.238281 11.265625 -27.09375 C 10.097656 -24.945312 9.515625 -22.332031 9.515625 -19.25 C 9.515625 -16.125 10.085938 -13.488281 11.234375 -11.34375 C 12.378906 -9.195312 13.90625 -7.597656 15.8125 -6.546875 C 17.726562 -5.492188 19.832031 -4.96875 22.125 -4.96875 Z M 22.125 -4.96875 "/></g></g></g><g fill="#d9d9d9" fill-opacity="0.4"><g transform="translate(169.375636, 214.181134)"><g><path d="M 3.015625 -19.25 C 3.015625 -23.21875 3.804688 -26.679688 5.390625 -29.640625 C 6.972656 -32.609375 9.175781 -34.90625 12 -36.53125 C 14.820312 -38.164062 18.054688 -38.984375 21.703125 -38.984375 C 26.410156 -38.984375 30.289062 -37.835938 33.34375 -35.546875 C 36.40625 -33.265625 38.425781 -30.097656 39.40625 -26.046875 L 32.546875 -26.046875 C 31.890625 -28.378906 30.617188 -30.21875 28.734375 -31.5625 C 26.847656 -32.914062 24.503906 -33.59375 21.703125 -33.59375 C 18.054688 -33.59375 15.113281 -32.34375 12.875 -29.84375 C 10.632812 -27.351562 9.515625 -23.820312 9.515625 -19.25 C 9.515625 -14.625 10.632812 -11.050781 12.875 -8.53125 C 15.113281 -6.019531 18.054688 -4.765625 21.703125 -4.765625 C 24.503906 -4.765625 26.835938 -5.414062 28.703125 -6.71875 C 30.566406 -8.03125 31.847656 -9.894531 32.546875 -12.3125 L 39.40625 -12.3125 C 38.382812 -8.394531 36.332031 -5.257812 33.25 -2.90625 C 30.164062 -0.550781 26.316406 0.625 21.703125 0.625 C 18.054688 0.625 14.820312 -0.1875 12 -1.8125 C 9.175781 -3.445312 6.972656 -5.757812 5.390625 -8.75 C 3.804688 -11.738281 3.015625 -15.238281 3.015625 -19.25 Z M 3.015625 -19.25 "/></g></g></g><g fill="#d9d9d9" fill-opacity="0.4"><g transform="translate(211.863312, 214.181134)"><g><path d="M 40.390625 -20.65625 C 40.390625 -19.4375 40.320312 -18.148438 40.1875 -16.796875 L 9.515625 -16.796875 C 9.753906 -13.015625 11.050781 -10.0625 13.40625 -7.9375 C 15.757812 -5.820312 18.617188 -4.765625 21.984375 -4.765625 C 24.734375 -4.765625 27.03125 -5.40625 28.875 -6.6875 C 30.71875 -7.96875 32.015625 -9.679688 32.765625 -11.828125 L 39.625 -11.828125 C 38.59375 -8.140625 36.535156 -5.140625 33.453125 -2.828125 C 30.378906 -0.523438 26.554688 0.625 21.984375 0.625 C 18.335938 0.625 15.078125 -0.1875 12.203125 -1.8125 C 9.335938 -3.445312 7.085938 -5.769531 5.453125 -8.78125 C 3.828125 -11.789062 3.015625 -15.28125 3.015625 -19.25 C 3.015625 -23.21875 3.804688 -26.691406 5.390625 -29.671875 C 6.972656 -32.660156 9.195312 -34.957031 12.0625 -36.5625 C 14.9375 -38.175781 18.242188 -38.984375 21.984375 -38.984375 C 25.617188 -38.984375 28.835938 -38.191406 31.640625 -36.609375 C 34.441406 -35.023438 36.597656 -32.84375 38.109375 -30.0625 C 39.628906 -27.289062 40.390625 -24.15625 40.390625 -20.65625 Z M 33.8125 -21.984375 C 33.8125 -24.410156 33.273438 -26.5 32.203125 -28.25 C 31.128906 -30 29.671875 -31.328125 27.828125 -32.234375 C 25.984375 -33.140625 23.941406 -33.59375 21.703125 -33.59375 C 18.484375 -33.59375 15.738281 -32.566406 13.46875 -30.515625 C 11.207031 -28.460938 9.914062 -25.617188 9.59375 -21.984375 Z M 33.8125 -21.984375 "/></g></g></g><g fill="#d9d9d9" fill-opacity="0.4"><g transform="translate(255.260942, 214.181134)"><g><path d="M 18.96875 0.625 C 16.03125 0.625 13.394531 0.125 11.0625 -0.875 C 8.726562 -1.875 6.882812 -3.269531 5.53125 -5.0625 C 4.175781 -6.863281 3.429688 -8.929688 3.296875 -11.265625 L 9.875 -11.265625 C 10.0625 -9.359375 10.957031 -7.796875 12.5625 -6.578125 C 14.175781 -5.367188 16.289062 -4.765625 18.90625 -4.765625 C 21.332031 -4.765625 23.242188 -5.300781 24.640625 -6.375 C 26.035156 -7.445312 26.734375 -8.800781 26.734375 -10.4375 C 26.734375 -12.113281 25.988281 -13.359375 24.5 -14.171875 C 23.007812 -14.992188 20.695312 -15.800781 17.5625 -16.59375 C 14.71875 -17.332031 12.394531 -18.085938 10.59375 -18.859375 C 8.800781 -19.628906 7.265625 -20.769531 5.984375 -22.28125 C 4.703125 -23.800781 4.0625 -25.800781 4.0625 -28.28125 C 4.0625 -30.238281 4.644531 -32.035156 5.8125 -33.671875 C 6.976562 -35.304688 8.632812 -36.597656 10.78125 -37.546875 C 12.925781 -38.503906 15.375 -38.984375 18.125 -38.984375 C 22.375 -38.984375 25.804688 -37.910156 28.421875 -35.765625 C 31.035156 -33.617188 32.4375 -30.679688 32.625 -26.953125 L 26.25 -26.953125 C 26.113281 -28.953125 25.304688 -30.554688 23.828125 -31.765625 C 22.359375 -32.984375 20.390625 -33.59375 17.921875 -33.59375 C 15.628906 -33.59375 13.804688 -33.101562 12.453125 -32.125 C 11.109375 -31.144531 10.4375 -29.863281 10.4375 -28.28125 C 10.4375 -27.019531 10.84375 -25.976562 11.65625 -25.15625 C 12.46875 -24.34375 13.492188 -23.691406 14.734375 -23.203125 C 15.972656 -22.710938 17.6875 -22.164062 19.875 -21.5625 C 22.632812 -20.8125 24.875 -20.070312 26.59375 -19.34375 C 28.320312 -18.625 29.804688 -17.539062 31.046875 -16.09375 C 32.285156 -14.65625 32.925781 -12.769531 32.96875 -10.4375 C 32.96875 -8.332031 32.382812 -6.4375 31.21875 -4.75 C 30.050781 -3.070312 28.40625 -1.753906 26.28125 -0.796875 C 24.15625 0.148438 21.71875 0.625 18.96875 0.625 Z M 18.96875 0.625 "/></g></g></g><g fill="#737373" fill-opacity="1"><g transform="translate(48.902346, 211.499986)"><g><path d="M 11.765625 -31.296875 C 13.023438 -33.484375 14.898438 -35.3125 17.390625 -36.78125 C 19.890625 -38.25 22.796875 -38.984375 26.109375 -38.984375 C 29.515625 -38.984375 32.601562 -38.164062 35.375 -36.53125 C 38.15625 -34.90625 40.335938 -32.609375 41.921875 -29.640625 C 43.515625 -26.679688 44.3125 -23.238281 44.3125 -19.3125 C 44.3125 -15.445312 43.515625 -11.992188 41.921875 -8.953125 C 40.335938 -5.921875 38.15625 -3.566406 35.375 -1.890625 C 32.601562 -0.210938 29.515625 0.625 26.109375 0.625 C 22.835938 0.625 19.953125 -0.109375 17.453125 -1.578125 C 14.960938 -3.046875 13.066406 -4.875 11.765625 -7.0625 L 11.765625 18.203125 L 5.390625 18.203125 L 5.390625 -38.359375 L 11.765625 -38.359375 Z M 37.796875 -19.3125 C 37.796875 -22.207031 37.210938 -24.726562 36.046875 -26.875 C 34.878906 -29.019531 33.300781 -30.648438 31.3125 -31.765625 C 29.332031 -32.890625 27.15625 -33.453125 24.78125 -33.453125 C 22.445312 -33.453125 20.285156 -32.878906 18.296875 -31.734375 C 16.316406 -30.597656 14.734375 -28.941406 13.546875 -26.765625 C 12.359375 -24.597656 11.765625 -22.09375 11.765625 -19.25 C 11.765625 -16.351562 12.359375 -13.820312 13.546875 -11.65625 C 14.734375 -9.488281 16.316406 -7.832031 18.296875 -6.6875 C 20.285156 -5.539062 22.445312 -4.96875 24.78125 -4.96875 C 27.15625 -4.96875 29.332031 -5.539062 31.3125 -6.6875 C 33.300781 -7.832031 34.878906 -9.488281 36.046875 -11.65625 C 37.210938 -13.820312 37.796875 -16.375 37.796875 -19.3125 Z M 37.796875 -19.3125 "/></g></g></g><g fill="#737373" fill-opacity="1"><g transform="translate(96.21976, 211.499986)"><g><path d="M 11.765625 -32.125 C 12.878906 -34.320312 14.472656 -36.023438 16.546875 -37.234375 C 18.628906 -38.453125 21.164062 -39.0625 24.15625 -39.0625 L 24.15625 -32.484375 L 22.46875 -32.484375 C 15.332031 -32.484375 11.765625 -28.609375 11.765625 -20.859375 L 11.765625 0 L 5.390625 0 L 5.390625 -38.359375 L 11.765625 -38.359375 Z M 11.765625 -32.125 "/></g></g></g><g fill="#737373" fill-opacity="1"><g transform="translate(122.328333, 211.499986)"><g><path d="M 22.125 0.625 C 18.53125 0.625 15.273438 -0.1875 12.359375 -1.8125 C 9.441406 -3.445312 7.15625 -5.769531 5.5 -8.78125 C 3.84375 -11.789062 3.015625 -15.28125 3.015625 -19.25 C 3.015625 -23.164062 3.863281 -26.628906 5.5625 -29.640625 C 7.269531 -32.648438 9.59375 -34.957031 12.53125 -36.5625 C 15.46875 -38.175781 18.757812 -38.984375 22.40625 -38.984375 C 26.039062 -38.984375 29.328125 -38.175781 32.265625 -36.5625 C 35.210938 -34.957031 37.535156 -32.660156 39.234375 -29.671875 C 40.941406 -26.691406 41.796875 -23.21875 41.796875 -19.25 C 41.796875 -15.28125 40.921875 -11.789062 39.171875 -8.78125 C 37.421875 -5.769531 35.050781 -3.445312 32.0625 -1.8125 C 29.070312 -0.1875 25.757812 0.625 22.125 0.625 Z M 22.125 -4.96875 C 24.40625 -4.96875 26.546875 -5.503906 28.546875 -6.578125 C 30.554688 -7.648438 32.179688 -9.257812 33.421875 -11.40625 C 34.660156 -13.550781 35.28125 -16.164062 35.28125 -19.25 C 35.28125 -22.332031 34.671875 -24.945312 33.453125 -27.09375 C 32.242188 -29.238281 30.660156 -30.832031 28.703125 -31.875 C 26.742188 -32.925781 24.617188 -33.453125 22.328125 -33.453125 C 19.992188 -33.453125 17.859375 -32.925781 15.921875 -31.875 C 13.984375 -30.832031 12.429688 -29.238281 11.265625 -27.09375 C 10.097656 -24.945312 9.515625 -22.332031 9.515625 -19.25 C 9.515625 -16.125 10.085938 -13.488281 11.234375 -11.34375 C 12.378906 -9.195312 13.90625 -7.597656 15.8125 -6.546875 C 17.726562 -5.492188 19.832031 -4.96875 22.125 -4.96875 Z M 22.125 -4.96875 "/></g></g></g><g fill="#737373" fill-opacity="1"><g transform="translate(167.125884, 211.499986)"><g><path d="M 3.015625 -19.25 C 3.015625 -23.21875 3.804688 -26.679688 5.390625 -29.640625 C 6.972656 -32.609375 9.175781 -34.90625 12 -36.53125 C 14.820312 -38.164062 18.054688 -38.984375 21.703125 -38.984375 C 26.410156 -38.984375 30.289062 -37.835938 33.34375 -35.546875 C 36.40625 -33.265625 38.425781 -30.097656 39.40625 -26.046875 L 32.546875 -26.046875 C 31.890625 -28.378906 30.617188 -30.21875 28.734375 -31.5625 C 26.847656 -32.914062 24.503906 -33.59375 21.703125 -33.59375 C 18.054688 -33.59375 15.113281 -32.34375 12.875 -29.84375 C 10.632812 -27.351562 9.515625 -23.820312 9.515625 -19.25 C 9.515625 -14.625 10.632812 -11.050781 12.875 -8.53125 C 15.113281 -6.019531 18.054688 -4.765625 21.703125 -4.765625 C 24.503906 -4.765625 26.835938 -5.414062 28.703125 -6.71875 C 30.566406 -8.03125 31.847656 -9.894531 32.546875 -12.3125 L 39.40625 -12.3125 C 38.382812 -8.394531 36.332031 -5.257812 33.25 -2.90625 C 30.164062 -0.550781 26.316406 0.625 21.703125 0.625 C 18.054688 0.625 14.820312 -0.1875 12 -1.8125 C 9.175781 -3.445312 6.972656 -5.757812 5.390625 -8.75 C 3.804688 -11.738281 3.015625 -15.238281 3.015625 -19.25 Z M 3.015625 -19.25 "/></g></g></g><g fill="#737373" fill-opacity="1"><g transform="translate(209.61356, 211.499986)"><g><path d="M 40.390625 -20.65625 C 40.390625 -19.4375 40.320312 -18.148438 40.1875 -16.796875 L 9.515625 -16.796875 C 9.753906 -13.015625 11.050781 -10.0625 13.40625 -7.9375 C 15.757812 -5.820312 18.617188 -4.765625 21.984375 -4.765625 C 24.734375 -4.765625 27.03125 -5.40625 28.875 -6.6875 C 30.71875 -7.96875 32.015625 -9.679688 32.765625 -11.828125 L 39.625 -11.828125 C 38.59375 -8.140625 36.535156 -5.140625 33.453125 -2.828125 C 30.378906 -0.523438 26.554688 0.625 21.984375 0.625 C 18.335938 0.625 15.078125 -0.1875 12.203125 -1.8125 C 9.335938 -3.445312 7.085938 -5.769531 5.453125 -8.78125 C 3.828125 -11.789062 3.015625 -15.28125 3.015625 -19.25 C 3.015625 -23.21875 3.804688 -26.691406 5.390625 -29.671875 C 6.972656 -32.660156 9.195312 -34.957031 12.0625 -36.5625 C 14.9375 -38.175781 18.242188 -38.984375 21.984375 -38.984375 C 25.617188 -38.984375 28.835938 -38.191406 31.640625 -36.609375 C 34.441406 -35.023438 36.597656 -32.84375 38.109375 -30.0625 C 39.628906 -27.289062 40.390625 -24.15625 40.390625 -20.65625 Z M 33.8125 -21.984375 C 33.8125 -24.410156 33.273438 -26.5 32.203125 -28.25 C 31.128906 -30 29.671875 -31.328125 27.828125 -32.234375 C 25.984375 -33.140625 23.941406 -33.59375 21.703125 -33.59375 C 18.484375 -33.59375 15.738281 -32.566406 13.46875 -30.515625 C 11.207031 -28.460938 9.914062 -25.617188 9.59375 -21.984375 Z M 33.8125 -21.984375 "/></g></g></g><g fill="#737373" fill-opacity="1"><g transform="translate(253.011189, 211.499986)"><g><path d="M 18.96875 0.625 C 16.03125 0.625 13.394531 0.125 11.0625 -0.875 C 8.726562 -1.875 6.882812 -3.269531 5.53125 -5.0625 C 4.175781 -6.863281 3.429688 -8.929688 3.296875 -11.265625 L 9.875 -11.265625 C 10.0625 -9.359375 10.957031 -7.796875 12.5625 -6.578125 C 14.175781 -5.367188 16.289062 -4.765625 18.90625 -4.765625 C 21.332031 -4.765625 23.242188 -5.300781 24.640625 -6.375 C 26.035156 -7.445312 26.734375 -8.800781 26.734375 -10.4375 C 26.734375 -12.113281 25.988281 -13.359375 24.5 -14.171875 C 23.007812 -14.992188 20.695312 -15.800781 17.5625 -16.59375 C 14.71875 -17.332031 12.394531 -18.085938 10.59375 -18.859375 C 8.800781 -19.628906 7.265625 -20.769531 5.984375 -22.28125 C 4.703125 -23.800781 4.0625 -25.800781 4.0625 -28.28125 C 4.0625 -30.238281 4.644531 -32.035156 5.8125 -33.671875 C 6.976562 -35.304688 8.632812 -36.597656 10.78125 -37.546875 C 12.925781 -38.503906 15.375 -38.984375 18.125 -38.984375 C 22.375 -38.984375 25.804688 -37.910156 28.421875 -35.765625 C 31.035156 -33.617188 32.4375 -30.679688 32.625 -26.953125 L 26.25 -26.953125 C 26.113281 -28.953125 25.304688 -30.554688 23.828125 -31.765625 C 22.359375 -32.984375 20.390625 -33.59375 17.921875 -33.59375 C 15.628906 -33.59375 13.804688 -33.101562 12.453125 -32.125 C 11.109375 -31.144531 10.4375 -29.863281 10.4375 -28.28125 C 10.4375 -27.019531 10.84375 -25.976562 11.65625 -25.15625 C 12.46875 -24.34375 13.492188 -23.691406 14.734375 -23.203125 C 15.972656 -22.710938 17.6875 -22.164062 19.875 -21.5625 C 22.632812 -20.8125 24.875 -20.070312 26.59375 -19.34375 C 28.320312 -18.625 29.804688 -17.539062 31.046875 -16.09375 C 32.285156 -14.65625 32.925781 -12.769531 32.96875 -10.4375 C 32.96875 -8.332031 32.382812 -6.4375 31.21875 -4.75 C 30.050781 -3.070312 28.40625 -1.753906 26.28125 -0.796875 C 24.15625 0.148438 21.71875 0.625 18.96875 0.625 Z M 18.96875 0.625 "/></g></g></g><g fill="#737373" fill-opacity="1"><g transform="translate(289.549196, 211.499986)"><g><path d="M 18.96875 0.625 C 16.03125 0.625 13.394531 0.125 11.0625 -0.875 C 8.726562 -1.875 6.882812 -3.269531 5.53125 -5.0625 C 4.175781 -6.863281 3.429688 -8.929688 3.296875 -11.265625 L 9.875 -11.265625 C 10.0625 -9.359375 10.957031 -7.796875 12.5625 -6.578125 C 14.175781 -5.367188 16.289062 -4.765625 18.90625 -4.765625 C 21.332031 -4.765625 23.242188 -5.300781 24.640625 -6.375 C 26.035156 -7.445312 26.734375 -8.800781 26.734375 -10.4375 C 26.734375 -12.113281 25.988281 -13.359375 24.5 -14.171875 C 23.007812 -14.992188 20.695312 -15.800781 17.5625 -16.59375 C 14.71875 -17.332031 12.394531 -18.085938 10.59375 -18.859375 C 8.800781 -19.628906 7.265625 -20.769531 5.984375 -22.28125 C 4.703125 -23.800781 4.0625 -25.800781 4.0625 -28.28125 C 4.0625 -30.238281 4.644531 -32.035156 5.8125 -33.671875 C 6.976562 -35.304688 8.632812 -36.597656 10.78125 -37.546875 C 12.925781 -38.503906 15.375 -38.984375 18.125 -38.984375 C 22.375 -38.984375 25.804688 -37.910156 28.421875 -35.765625 C 31.035156 -33.617188 32.4375 -30.679688 32.625 -26.953125 L 26.25 -26.953125 C 26.113281 -28.953125 25.304688 -30.554688 23.828125 -31.765625 C 22.359375 -32.984375 20.390625 -33.59375 17.921875 -33.59375 C 15.628906 -33.59375 13.804688 -33.101562 12.453125 -32.125 C 11.109375 -31.144531 10.4375 -29.863281 10.4375 -28.28125 C 10.4375 -27.019531 10.84375 -25.976562 11.65625 -25.15625 C 12.46875 -24.34375 13.492188 -23.691406 14.734375 -23.203125 C 15.972656 -22.710938 17.6875 -22.164062 19.875 -21.5625 C 22.632812 -20.8125 24.875 -20.070312 26.59375 -19.34375 C 28.320312 -18.625 29.804688 -17.539062 31.046875 -16.09375 C 32.285156 -14.65625 32.925781 -12.769531 32.96875 -10.4375 C 32.96875 -8.332031 32.382812 -6.4375 31.21875 -4.75 C 30.050781 -3.070312 28.40625 -1.753906 26.28125 -0.796875 C 24.15625 0.148438 21.71875 0.625 18.96875 0.625 Z M 18.96875 0.625 "/></g></g></g></svg> 